<svg xmlns="http://www.w3.org/2000/svg" viewBox="0 0 512 512">
  <defs>
    <linearGradient id="bulbOuter" x1="0%" y1="0%" x2="0%" y2="100%">
      <stop offset="0%" stop-color="#fff277" />
      <stop offset="45%" stop-color="#ffdd4b" />
      <stop offset="100%" stop-color="#f7b500" />
    </linearGradient>
    <linearGradient id="bulbInner" x1="0%" y1="0%" x2="0%" y2="100%">
      <stop offset="0%" stop-color="#fffce0" />
      <stop offset="100%" stop-color="#fde196" />
    </linearGradient>
    <linearGradient id="baseMetal" x1="0%" y1="0%" x2="0%" y2="100%">
      <stop offset="0%" stop-color="#d1d5db" />
      <stop offset="100%" stop-color="#6b7280" />
    </linearGradient>
    <filter id="glow" x="-80%" y="-80%" width="260%" height="260%" color-interpolation-filters="sRGB">
      <feGaussianBlur in="SourceGraphic" stdDeviation="18" result="blur" />
      <feFlood flood-color="#fff1a5" flood-opacity="0.55" result="color" />
      <feComposite in="color" in2="blur" operator="in" />
      <feMerge>
        <feMergeNode />
        <feMergeNode in="SourceGraphic" />
      </feMerge>
    </filter>
    <filter id="shadow" x="-50%" y="-50%" width="200%" height="200%">
      <feDropShadow dx="0" dy="16" stdDeviation="10" flood-color="rgba(0,0,0,0.22)" />
    </filter>
    <path id="textPath" d="M256,58
      a198,198 0 1,1 -0.1,0" />
  </defs>
  <g filter="url(#shadow)">
    <g filter="url(#glow)">
      <path d="M256 60
        c-90 0 -166 71 -166 160
        c0 69 44 131 108 152
        l0 62
        c0 0 12 24 58 24
        c46 0 58-24 58-24
        l0-62
        c64-21 108-83 108-152
        c0-89-76-160-166-160z"
        fill="url(#bulbOuter)" />
      <path d="M256 100
        c-67 0 -122 55 -122 123
        c0 47 30 88 74 106
        l0 46
        c0 0 9 16 48 16
        c39 0 48-16 48-16
        l0-46
        c44-18 74-59 74-106
        c0-68-55-123-122-123z"
        fill="url(#bulbInner)" />
      <path d="M266 206c20-12 42-44 42-67 0-37-26-62-55-62-20 0-40 7-52 24-9 13-42 72-43 114-1 31 21 55 45 55 28 0 58-22 73-34z"
        fill="#ffffff" opacity="0.18" />
      <path d="M162 178c18-23 51-34 83-29 20 2 47 14 61 28 16 16 25 44 25 68 0 40-24 87-49 120-17 23-32 42-46 61-26 23-52 25-74 13-27-11-39-37-39-66 0-28 12-59 28-80 15-19 23-30 9-31-30-2-82 108-39 172 41 60 161 64 269-50 25-25 42-47 55-72 33-68 28-150-33-190-41-28-114-22-160 16-26 21-29 27-29 40 0 25 5 24 0 0z"
        fill="#d02929" />
    </g>
    <path d="M172 328c14 0 26 9 26 20 0 12-12 20-26 20s-26-8-26-20c0-11 12-20 26-20z" fill="#b31a1a" />
    <rect x="210" y="370" width="92" height="40" rx="12" fill="url(#baseMetal)" />
    <rect x="206" y="410" width="100" height="32" rx="12" fill="#9ca3af" />
    <path d="M232 379h48v16h-48z" fill="#6b7280" opacity="0.5" />
    <circle cx="360" cy="146" r="16" fill="#d31b1b" />
    <circle cx="152" cy="160" r="14" fill="#d31b1b" />
    <text x="256" y="465" text-anchor="middle" font-family="sans-serif" font-size="42" font-weight="700" fill="#1f2937">1978</text>
    <text font-family="sans-serif" font-size="22" fill="#1f2937" text-anchor="middle">
      <textPath href="#textPath" startOffset="50%" side="left">BOHOL II ELECTRIC COOPERATIVE, INC</textPath>
    </text>
  </g>
</svg>
